<?xml version="1.0" encoding="UTF-8"?> <svg xmlns="http://www.w3.org/2000/svg" width="176" height="35" viewBox="0 0 176 35" fill="none"><g clip-path="url(#clip0_198_4630)"><path d="M170.064 10.5226C170.984 11.4503 171.597 12.6873 171.904 13.9243C172.211 15.1612 172.211 16.3982 171.904 17.7382C171.597 18.8721 171.086 20.006 170.268 20.9337C169.45 21.8614 168.428 22.583 167.405 23.0984C166.791 23.4076 166.076 23.5107 165.36 23.6138C164.644 23.7169 163.826 23.7169 163.11 23.5107C161.985 23.3045 160.861 22.7891 159.838 22.0676C158.918 21.346 158.1 20.4183 157.588 19.2844C157.486 19.0783 157.384 18.8721 157.282 18.6659C157.179 18.4598 157.077 18.1505 157.077 17.9444C156.975 17.5321 156.873 17.1197 156.873 16.7074C156.873 16.2951 156.77 15.7797 156.873 15.3674C156.975 13.8212 157.588 12.3781 158.509 11.1411C159.429 9.90413 160.758 8.97641 162.19 8.56409C163.008 8.25485 163.928 8.15177 164.951 8.15177C165.973 8.15177 166.894 8.46101 167.712 8.77025C168.121 8.97641 168.632 9.18257 169.041 9.49181C169.246 9.80105 169.655 10.1103 170.064 10.5226ZM171.7 8.25485C170.473 7.12097 169.041 6.19325 167.507 5.78093C167.303 5.67785 167.098 5.67785 166.894 5.57477C166.689 5.57477 166.485 5.47169 166.28 5.47169C165.462 5.26553 164.542 5.26553 163.724 5.36861C162.906 5.47169 161.985 5.57477 161.27 5.88401C159.736 6.39941 158.304 7.32713 157.179 8.46101C156.055 9.59489 155.134 11.038 154.623 12.5842C154.214 13.8212 154.01 15.2643 154.214 16.7074C154.316 18.0475 154.623 19.3875 155.237 20.5214C155.85 21.8614 156.873 23.0984 158.1 24.1292C159.327 25.0569 160.758 25.7785 162.19 26.1908C163.417 26.5 164.849 26.6031 166.178 26.3969C167.507 26.1908 168.837 25.6754 169.961 25.0569C171.086 24.4384 172.006 23.5107 172.824 22.583C173.643 21.5522 174.256 20.4183 174.665 19.1813C174.972 18.1505 175.176 17.0167 175.176 15.8828C175.176 14.7489 174.972 13.615 174.563 12.5842C173.745 10.8319 172.824 9.38873 171.7 8.25485Z" fill="#402F24"></path><path d="M117.607 12.378C117.913 12.8934 118.118 13.5119 118.22 14.0273C118.322 14.6458 118.425 15.2643 118.425 15.8827C118.425 17.4289 117.913 18.8721 116.993 20.109C116.073 21.346 114.846 22.3768 113.414 22.8922C113.107 22.9953 112.698 23.0983 112.289 23.2014C111.88 23.3045 111.471 23.4076 111.062 23.4076C110.04 23.5107 109.017 23.3045 108.097 22.9953C107.177 22.686 106.256 22.1706 105.541 21.4491C104.416 20.4183 103.598 19.0782 103.189 17.6351C102.78 16.192 102.78 14.6458 103.291 13.2027C103.598 12.1719 104.211 11.1411 105.029 10.3164C105.847 9.49178 106.87 8.77022 107.892 8.3579C108.608 8.04866 109.528 7.94558 110.449 7.8425C111.369 7.8425 112.187 7.94558 113.005 8.25482C113.925 8.56406 114.846 9.07946 115.664 9.80102C116.584 10.6257 117.198 11.4503 117.607 12.378ZM118.322 8.56406C117.198 7.43018 115.971 6.50246 114.539 5.98706C113.925 5.7809 113.312 5.57474 112.698 5.47166C112.085 5.36858 111.369 5.2655 110.756 5.2655C109.835 5.2655 108.915 5.36858 107.995 5.67782C107.074 5.88398 106.256 6.2963 105.541 6.70862C104.416 7.43018 103.393 8.3579 102.575 9.3887C101.757 10.4195 101.144 11.6565 100.837 12.8934C100.53 13.8211 100.428 14.8519 100.428 15.8827C100.428 17.0166 100.632 18.0474 100.939 18.9751C101.348 20.3152 102.166 21.6552 103.189 22.7891C104.211 23.923 105.438 24.8507 106.768 25.3661C108.608 26.1907 110.551 26.3969 112.494 26.0877C114.437 25.7784 116.175 24.9538 117.709 23.7168C117.913 23.5107 118.118 23.5107 118.322 23.6137H118.425C118.527 23.7168 118.629 23.8199 118.629 24.0261V24.9538C118.629 25.0569 118.731 25.263 118.731 25.3661C118.731 25.4692 118.834 25.5723 118.936 25.6753C119.14 25.8815 119.345 25.9846 119.549 26.0877C119.754 26.1907 120.061 26.1907 120.265 26.0877C120.47 25.9846 120.777 25.8815 120.879 25.6753C121.083 25.4692 121.186 25.263 121.186 24.9538V14.955C121.186 14.5427 121.083 14.0273 121.083 13.615C120.981 13.2027 120.879 12.6873 120.777 12.2749C120.265 11.1411 119.447 9.69794 118.322 8.56406Z" fill="#402F24"></path><path d="M93.7812 12.1719C94.2924 12.9965 94.4969 14.1304 94.5992 15.1612C94.7015 16.192 94.5992 17.2228 94.2924 18.2536C93.9857 19.1813 93.4744 20.1091 92.8609 20.8306C92.2473 21.5522 91.4293 22.2737 90.6112 22.6861C90.1 22.9953 89.6909 23.0984 89.1797 23.3045L88.9752 23.4076H88.8729C88.2594 23.6138 87.6458 23.6138 86.93 23.6138C86.2143 23.6138 85.6007 23.5107 84.9872 23.3045C83.9646 22.9953 83.0443 22.4799 82.124 21.8614C81.306 21.1399 80.5902 20.3152 80.0789 19.3875C79.7722 18.769 79.4654 18.0475 79.3631 17.2228C79.2609 16.5013 79.2609 15.7797 79.3631 14.9551C79.4654 13.615 80.0789 12.275 80.897 11.1411C81.715 10.0072 82.8398 9.0795 84.1692 8.66718C84.7827 8.35794 85.4985 8.25486 86.2143 8.15178C86.93 8.0487 87.6458 8.15178 88.3616 8.25486C89.4864 8.46102 90.509 8.97642 91.4293 9.5949C92.4518 10.2134 93.2699 11.1411 93.7812 12.1719ZM93.7812 7.73946C92.7586 6.91482 91.6338 6.19326 90.4067 5.78094C89.6909 5.57478 89.0774 5.36862 88.2594 5.26554C87.5436 5.16246 86.7255 5.16246 86.0097 5.26554H85.703C85.3962 5.26554 85.1917 5.36862 84.8849 5.36862C84.3737 5.4717 83.7601 5.67786 83.2489 5.88402C82.7376 6.09018 82.2263 6.29634 81.715 6.60558C80.1812 7.5333 78.9541 8.77026 78.0338 10.2134C77.1135 11.6565 76.6023 13.4089 76.5 15.1612V33.3033C76.5 33.4064 76.5 33.6125 76.6023 33.7156C76.7045 33.8187 76.8068 34.0249 76.909 34.1279C77.1135 34.3341 77.318 34.4372 77.5226 34.5403C77.7271 34.6433 78.0338 34.6433 78.3406 34.5403C78.5451 34.4372 78.8519 34.3341 78.9541 34.1279C79.1586 33.9218 79.2609 33.6126 79.2609 33.4064V24.2323C79.2609 24.1292 79.2609 23.923 79.3631 23.8199C79.5677 23.6138 79.8744 23.6138 80.0789 23.8199C80.897 24.5415 81.8173 25.16 82.8398 25.5723C83.8624 25.9846 84.9872 26.2939 86.112 26.3969C87.0323 26.5 88.0549 26.3969 88.9752 26.1908C89.9977 25.9846 90.918 25.5723 91.8383 25.16C93.0654 24.5415 94.1902 23.5107 95.1105 22.3768C96.0308 21.2429 96.6443 19.9029 97.0533 18.5629C97.3601 17.3259 97.4623 15.9859 97.3601 14.6458C97.1556 13.3058 96.8488 12.0688 96.2353 10.9349C95.6218 9.69798 94.8037 8.66718 93.7812 7.73946Z" fill="#402F24"></path><path d="M16.4755 6.81177C15.5552 6.19329 14.4304 5.78097 13.4078 5.57481C13.101 5.47173 12.8965 5.47173 12.5898 5.47173C12.283 5.47173 12.0785 5.36865 11.7717 5.36865C11.3627 5.36865 10.8514 5.36865 10.4424 5.36865C10.0334 5.36865 9.62436 5.47173 9.21534 5.47173L8.29504 5.57481C7.88602 5.67789 7.477 5.88405 7.06797 5.98713H6.96572C5.53414 6.60561 4.10257 7.63641 3.08001 8.97645C1.95521 10.3165 1.13716 11.8627 0.830397 13.4089C0.31912 15.5736 0.523631 17.6352 1.23942 19.5937C1.95521 21.5522 3.18227 23.2015 4.92061 24.4385C5.53414 24.8508 6.14768 25.2631 6.76121 25.4693C7.37474 25.7785 8.09053 25.9847 8.80632 26.1908C10.3401 26.5001 11.874 26.5001 13.4078 26.1908C14.9416 25.8816 16.3732 25.16 17.498 24.2323C17.8048 24.0261 18.1116 23.7169 18.4183 23.4077C18.7251 23.0984 18.9296 22.7892 19.1341 22.4799C19.2364 22.2738 19.2364 21.9645 19.2364 21.7584C19.2364 21.5522 19.1341 21.243 19.0319 21.1399C18.9296 20.9337 18.7251 20.7276 18.4183 20.7276C18.2138 20.6245 17.907 20.6245 17.7025 20.6245C17.498 20.6245 17.1913 20.7276 16.9867 20.9337C16.7822 21.1399 16.5777 21.3461 16.3732 21.5522C16.3732 21.5522 16.3732 21.5522 16.3732 21.6553C15.8619 22.1707 15.3507 22.583 14.7371 22.8923C14.1236 23.2015 13.4078 23.5107 12.7943 23.6138C11.874 23.82 10.9537 23.82 10.1356 23.7169C9.21534 23.6138 8.39729 23.3046 7.68151 22.8923C6.5567 22.3769 5.6364 21.5522 4.92061 20.5214C4.20482 19.4906 3.69355 18.3567 3.48904 17.1198C3.38678 16.3982 3.38678 15.6767 3.38678 15.0582C3.48904 14.3366 3.59129 13.7181 3.89806 13.0997C4.30708 12.0689 4.92061 11.1411 5.73865 10.3165C6.5567 9.49185 7.57925 8.87337 8.6018 8.56413C10.0334 8.04873 11.5672 8.04873 12.9988 8.46105C14.4304 8.87337 15.7597 9.59493 16.68 10.7288C16.8845 10.935 16.9867 11.0381 17.1913 11.1411C17.3958 11.2442 17.6003 11.2442 17.8048 11.3473C18.1116 11.3473 18.3161 11.2442 18.6228 11.1411C18.8273 11.0381 19.0319 10.8319 19.1341 10.5227C19.2364 10.3165 19.2364 10.0073 19.2364 9.80109C19.2364 9.59493 19.1341 9.28569 18.9296 9.18261C18.2138 8.04873 17.3958 7.32717 16.4755 6.81177Z" fill="#402F24"></path><path d="M59.1162 7.53337L58.9117 7.22413C58.6049 6.81181 58.1959 6.50257 57.7869 6.29641C57.3778 5.98717 56.8666 5.78101 56.4576 5.67793C55.844 5.47177 55.2305 5.36869 54.5147 5.26561C53.7989 5.26561 53.1854 5.26561 52.4696 5.36869C52.1628 5.47177 51.8561 5.47177 51.447 5.57485C51.1403 5.67793 50.8335 5.78101 50.5267 5.88409C49.1974 6.29641 48.2771 7.22413 47.6636 8.25493C46.9478 9.49189 46.5388 11.0381 46.4365 12.4812V24.4385V24.5416C46.4365 24.8508 46.4365 25.1601 46.5388 25.4693C46.641 25.6755 46.7433 25.8816 47.0501 26.0878C47.2546 26.1909 47.4591 26.2939 47.6636 26.2939C47.8681 26.2939 48.1749 26.2939 48.3794 26.1909C48.5839 26.0878 48.7884 25.9847 48.8907 25.7785C48.9929 25.5724 49.1974 25.3662 49.1974 25.1601V12.5843C49.1974 11.8627 49.2997 11.2442 49.6064 10.6258C49.8109 10.0073 50.22 9.49189 50.7312 8.97649C51.2425 8.46109 51.8561 8.25493 52.4696 8.04877C53.0831 7.94569 53.6967 7.84261 54.4124 7.94569H54.5147C54.9237 8.15185 55.3327 8.25493 55.7418 8.46109C56.1508 8.66725 56.4576 8.87341 56.7643 9.18265C57.2756 9.69805 57.5824 10.3165 57.7869 11.0381C57.9914 11.6566 58.0936 12.3781 57.9914 13.0997V24.9539C57.9914 25.2631 57.9914 25.4693 58.0936 25.6755C58.1959 25.8816 58.2981 26.0878 58.5027 26.1909C58.7072 26.2939 58.9117 26.397 59.1162 26.397C59.3207 26.397 59.5252 26.397 59.7297 26.2939C59.9342 26.1909 60.1387 26.0878 60.241 25.8816C60.4455 25.6755 60.5478 25.4693 60.5478 25.2631V12.4812C60.5478 11.9658 60.7523 11.3473 60.8545 10.8319C61.059 10.3165 61.3658 9.80113 61.6726 9.38881C62.0816 8.97649 62.3884 8.77033 62.8996 8.46109C63.3087 8.25493 63.8199 8.15185 64.3312 8.04877C64.9447 7.94569 65.456 7.94569 66.0696 8.04877C66.5808 8.15185 66.9899 8.25493 67.5011 8.56417C68.2169 9.07957 68.7282 9.69805 69.035 10.4196C69.3417 11.2442 69.444 12.172 69.444 13.0997V25.057V25.2631C69.5462 25.4693 69.6485 25.7785 69.853 25.8816C70.0575 26.0878 70.262 26.1909 70.5688 26.1909C70.8756 26.1909 71.0801 26.1909 71.2846 26.0878C71.4891 25.9847 71.6936 25.8816 71.8981 25.5724C72.0004 25.4693 72.0004 25.3662 72.1026 25.2631C72.1026 25.1601 72.2049 25.057 72.2049 24.9539V13.0997C72.2049 12.275 72.1026 11.4504 72.0004 10.7288C71.8981 10.0073 71.5913 9.28573 71.2846 8.56417C70.7733 7.53337 70.0575 6.70873 69.1372 6.09025C68.2169 5.47177 67.0921 5.05945 65.9673 4.95637C64.638 4.85329 63.3087 4.95637 62.0816 5.36869C61.059 5.67793 60.1387 6.29641 59.5252 7.12105C59.6275 7.73953 59.3207 7.73953 59.1162 7.53337Z" fill="#402F24"></path><path d="M129.673 1.14229C129.673 1.03921 129.571 0.83305 129.571 0.72997C129.366 0.42073 129.161 0.21457 128.855 0.11149C128.548 0.00840968 128.241 0.00840968 127.934 0.11149C127.73 0.21457 127.525 0.31765 127.321 0.52381C127.116 0.72997 127.014 0.93613 127.014 1.24537V4.75009C127.014 4.85317 127.014 5.05933 126.912 5.16241C126.81 5.26549 126.707 5.26549 126.605 5.26549H124.049C123.946 5.26549 123.742 5.36857 123.64 5.36857C123.537 5.47165 123.333 5.47165 123.231 5.57473C123.026 5.78089 122.924 5.98705 122.822 6.19321C122.719 6.50245 122.822 6.81169 122.924 7.01785C123.026 7.22401 123.128 7.43017 123.333 7.53325C123.537 7.73941 123.742 7.84249 123.946 7.84249H126.503C126.605 7.84249 126.605 7.84249 126.707 7.94557C126.912 8.04865 127.014 8.15173 127.014 8.35789V19.6967C127.014 20.8306 127.423 21.9645 127.934 22.8922C128.548 23.8199 129.366 24.6445 130.389 25.1599C130.798 25.3661 131.207 25.5723 131.616 25.6753C132.025 25.7784 132.434 25.8815 132.843 25.8815H134.479C134.683 25.8815 134.786 25.8815 134.99 25.7784C135.092 25.6753 135.297 25.6753 135.399 25.5723C135.604 25.3661 135.808 25.1599 135.808 24.8507C135.91 24.5415 135.91 24.3353 135.808 24.0261C135.706 23.8199 135.604 23.6137 135.399 23.5107C135.195 23.3045 134.99 23.2014 134.683 23.2014C134.377 23.2014 134.07 23.2014 133.865 23.2014C133.354 23.2014 132.843 23.2014 132.331 23.0983C131.616 22.8922 131.002 22.4799 130.593 21.9645C130.184 21.4491 129.877 20.7275 129.775 20.0059V8.56405C129.775 8.46097 129.775 8.25481 129.877 8.15173C129.98 8.04865 130.082 7.94557 130.286 7.94557H134.888C135.092 7.94557 135.297 7.84249 135.399 7.84249C135.604 7.73941 135.706 7.63633 135.91 7.43017C136.013 7.22401 136.115 7.01785 136.217 6.81169C136.217 6.60553 136.217 6.39937 136.115 6.19321V6.09013C136.013 5.88397 135.91 5.67781 135.706 5.47165C135.501 5.26549 135.297 5.16241 134.99 5.16241H130.286C130.184 5.16241 130.082 5.16241 129.98 5.05933C129.877 4.95625 129.775 4.85317 129.775 4.64701V1.45153C129.775 1.45153 129.775 1.24537 129.673 1.14229Z" fill="#402F24"></path><path d="M145.215 1.14229C145.215 1.03921 145.113 0.83305 145.113 0.72997C144.908 0.42073 144.704 0.21457 144.397 0.11149C144.09 0.00840968 143.784 0.00840968 143.477 0.11149C143.272 0.21457 143.068 0.31765 142.863 0.52381C142.659 0.72997 142.557 0.93613 142.557 1.24537V4.75009C142.557 4.85317 142.557 5.05933 142.454 5.16241C142.352 5.26549 142.25 5.26549 142.148 5.26549H139.591C139.489 5.26549 139.284 5.36857 139.182 5.36857C139.08 5.47165 138.875 5.47165 138.773 5.57473C138.569 5.78089 138.466 5.98705 138.364 6.19321C138.262 6.50245 138.364 6.81169 138.466 7.01785C138.569 7.22401 138.671 7.43017 138.875 7.53325C139.08 7.73941 139.284 7.84249 139.489 7.84249H142.045C142.148 7.84249 142.148 7.84249 142.25 7.94557C142.454 8.04865 142.557 8.15173 142.557 8.35789V19.6967C142.557 20.8306 142.966 21.9645 143.477 22.8922C144.09 23.8199 144.908 24.6445 145.931 25.1599C146.34 25.3661 146.749 25.5723 147.158 25.6753C147.567 25.7784 147.976 25.8815 148.385 25.8815H150.021C150.226 25.8815 150.328 25.8815 150.533 25.7784C150.635 25.6753 150.839 25.6753 150.942 25.5723C151.146 25.3661 151.351 25.1599 151.351 24.8507C151.453 24.5415 151.453 24.3353 151.351 24.0261C151.248 23.8199 151.146 23.6137 150.942 23.5107C150.737 23.3045 150.533 23.2014 150.226 23.2014C149.919 23.2014 149.612 23.2014 149.408 23.2014C148.896 23.2014 148.385 23.2014 147.874 23.0983C147.158 22.8922 146.545 22.4799 146.136 21.9645C145.727 21.4491 145.42 20.7275 145.318 20.0059V8.56405C145.318 8.46097 145.317 8.25481 145.42 8.15173C145.522 8.04865 145.624 7.94557 145.829 7.94557H150.43C150.635 7.94557 150.839 7.84249 150.942 7.84249C151.146 7.73941 151.248 7.63633 151.453 7.43017C151.555 7.22401 151.657 7.01785 151.76 6.70861C151.76 6.50245 151.76 6.29629 151.657 6.09013V5.98705C151.555 5.78089 151.453 5.57473 151.248 5.36857C151.044 5.16241 150.839 5.05933 150.533 5.05933H145.829C145.727 5.05933 145.624 5.05933 145.522 4.95625C145.42 4.85317 145.318 4.75009 145.318 4.54393V1.34845C145.318 1.45153 145.317 1.24537 145.215 1.14229Z" fill="#402F24"></path><path d="M42.1421 19.9029C40.506 23.7169 36.8248 26.397 32.4278 26.397C32.0188 26.397 31.712 26.397 31.303 26.2939C31.2007 26.2939 30.9962 26.2939 30.894 26.1908C31.5075 26.0877 31.5075 26.0877 32.0188 25.5723C32.5301 25.16 39.2789 21.5522 42.1421 19.9029ZM42.7556 18.1506C42.6534 18.4598 42.5511 18.769 42.4488 19.0783C41.2218 19.7998 39.1767 20.4183 38.5631 20.7276C34.8819 22.7892 34.1662 22.8922 30.485 24.5415C29.8714 24.7477 29.2579 25.2631 28.6444 25.7785C28.4399 25.6754 28.2353 25.6754 28.1331 25.5723C29.6669 24.7477 31.712 23.82 31.8143 23.82C34.1662 23.2015 37.4383 20.6245 39.2789 20.1091C40.1992 19.5937 41.8353 18.666 42.7556 18.1506ZM42.9601 14.9551C42.9601 15.2643 42.9601 15.5736 42.9601 15.8828C42.9601 15.9859 42.9601 16.089 42.9601 16.2951H42.8579C42.8579 16.2951 42.7556 16.2951 42.6534 16.3982C40.4037 17.3259 37.4383 18.5629 35.4955 19.6968C32.5301 21.346 28.6444 22.583 25.5767 24.0261C25.3722 23.923 25.2699 23.7169 25.1677 23.6138C26.497 23.0984 27.6218 22.3768 28.8489 22.0676C31.8143 21.4491 34.4729 19.3875 36.7225 18.5629C38.3586 17.8413 41.4263 15.5736 42.9601 14.9551ZM38.0519 6.81176C38.4609 7.01792 38.8699 7.32716 39.1767 7.6364C38.3586 8.46104 37.5406 9.1826 36.6203 9.80108C35.3932 10.7288 34.1662 11.3473 32.6323 12.4812C30.485 14.1304 28.3376 16.089 29.1556 17.1198C30.1782 18.4598 37.9496 14.5428 38.5631 14.3366C39.0744 14.1304 40.915 13.2027 42.4488 12.4812C42.5511 12.8935 42.6534 13.2027 42.7556 13.615C39.9947 14.9551 35.0865 16.8105 33.0413 17.6352C31.712 18.1506 27.7241 19.7998 26.3947 20.006C25.7812 20.1091 25.3722 19.9029 25.3722 19.6968C25.0654 18.8721 25.8835 18.4598 25.8835 17.6352C25.9857 16.7074 24.8609 16.6044 26.2925 15.2643C28.4399 13.4089 34.7797 9.38876 38.0519 6.81176ZM35.4955 5.67788C35.8022 5.78096 36.109 5.88404 36.4158 5.98712C35.3932 6.81176 33.7571 7.94564 33.5526 8.04872C30.485 9.698 27.315 12.275 24.3496 14.1304C23.3271 14.7489 22.1 15.7797 21.9978 17.0167C21.9978 16.6044 21.8955 16.192 21.8955 15.8828C21.8955 15.4705 21.8955 14.9551 21.9978 14.5428C22.9181 13.7181 24.5541 12.8935 25.0654 12.5842C27.5196 11.2442 29.5647 9.49184 31.9165 8.1518C32.0188 8.1518 34.2684 6.6056 35.4955 5.67788ZM32.5301 5.16248C33.2459 5.16248 33.8594 5.26556 34.5752 5.36864C31.5075 5.36864 31.0985 7.01792 28.4399 8.25488C27.6218 8.6672 24.4519 10.7288 22.7136 11.9658C24.1451 8.04872 28.0308 5.16248 32.5301 5.16248ZM38.6654 9.1826C38.1541 9.59492 37.8473 9.90416 37.4383 10.2134C35.9045 11.5534 34.6774 12.1719 33.1436 13.2027C32.6323 13.512 30.0759 15.2643 30.485 15.9859C31.2007 17.3259 37.8473 13.8212 38.6654 13.3058C39.1767 12.9966 41.7331 12.3781 40.097 12.275C38.7676 12.275 35.5977 14.2335 33.7571 14.852C32.9391 15.0582 32.3256 15.3674 32.121 15.0582C32.0188 14.7489 32.6323 14.3366 33.2459 13.9243C34.6774 12.7904 36.518 11.6565 37.7451 10.5226C37.9496 10.3165 38.3586 10.1103 38.4609 9.90416C38.5631 9.698 38.5631 9.38876 38.6654 9.1826Z" fill="#9D7A5D"></path></g><defs><clipPath id="clip0_198_4630"><rect width="175" height="35" fill="white" transform="translate(0.523926)"></rect></clipPath></defs></svg> 